<?xml version="1.0" standalone="no"?>
<!DOCTYPE svg PUBLIC "-//W3C//DTD SVG 20010904//EN"
 "http://www.w3.org/TR/2001/REC-SVG-20010904/DTD/svg10.dtd">
<svg version="1.0" xmlns="http://www.w3.org/2000/svg"
 width="256.000000pt" height="256.000000pt" viewBox="0 0 256.000000 256.000000"
 preserveAspectRatio="xMidYMid meet">

<g transform="translate(0.000000,256.000000) scale(0.100000,-0.100000)"
fill="#000000" stroke="none">
<path d="M228 2039 c-15 -8 -18 -24 -18 -87 l1 -77 484 -268 483 -268 484 269
483 269 3 69 c5 115 107 104 -972 104 -614 -1 -937 -4 -948 -11z"/>
<path d="M210 1278 c0 -457 1 -480 18 -466 9 8 169 133 354 277 186 144 338
265 338 269 -1 4 -160 95 -355 204 l-355 196 0 -480z"/>
<path d="M1790 1561 c-195 -110 -353 -203 -351 -207 2 -5 101 -84 219 -176
l216 -168 106 104 c74 73 115 106 138 111 l32 7 0 264 c0 145 -1 264 -2 264
-2 -1 -163 -90 -358 -199z"/>
<path d="M678 1032 c-185 -147 -349 -277 -365 -289 l-28 -22 671 0 672 -1 7
27 c3 15 42 63 85 108 l79 81 -236 183 -236 184 -67 -37 c-37 -20 -75 -36 -85
-36 -9 0 -45 16 -79 35 -35 19 -67 35 -72 34 -5 0 -160 -121 -346 -267z"/>
<path d="M2097 1082 l-47 -48 108 -107 108 -108 47 50 c26 28 47 58 47 68 0
25 -170 193 -195 193 -12 0 -42 -21 -68 -48z"/>
<path d="M1848 836 l-118 -120 0 -98 c0 -118 0 -118 126 -118 l87 0 121 120
121 120 -110 108 -110 108 -117 -120z"/>
</g>
</svg>
